<?xml version="1.0" standalone="no"?>
<!DOCTYPE svg PUBLIC "-//W3C//DTD SVG 20010904//EN"
 "http://www.w3.org/TR/2001/REC-SVG-20010904/DTD/svg10.dtd">
<svg version="1.0" xmlns="http://www.w3.org/2000/svg"
 width="599.000000pt" height="147.000000pt" viewBox="0 0 599.000000 147.000000"
 preserveAspectRatio="xMidYMid meet">

<g transform="translate(0.000000,147.000000) scale(0.100000,-0.100000)"
fill="#000000" stroke="none">
<path d="M378 1386 c-15 -19 -91 -100 -168 -179 -103 -106 -140 -151 -140
-169 0 -17 15 -37 49 -66 27 -23 53 -51 56 -62 5 -14 15 -20 37 -20 21 0 58
-20 124 -67 52 -36 94 -68 94 -71 0 -2 -13 -21 -29 -41 -55 -69 -91 -138 -91
-171 0 -19 -6 -41 -14 -49 -8 -9 -57 -81 -110 -160 -99 -149 -119 -201 -76
-201 32 0 107 41 121 66 6 13 29 29 50 36 35 12 55 36 189 228 82 118 150 224
150 234 0 17 -272 -364 -287 -401 -3 -7 -21 -22 -41 -35 -21 -12 -60 -41 -89
-65 -54 -45 -93 -56 -93 -25 0 16 171 284 206 323 10 11 13 26 8 43 -7 28 16
70 82 153 19 23 34 50 34 61 0 26 -180 162 -214 162 -26 0 -135 103 -136 129
0 7 73 91 163 186 l162 173 123 1 c74 1 122 5 122 11 0 6 -49 10 -127 10
l-128 0 -27 -34z"/>
<path d="M746 1411 c-3 -4 1 -17 9 -27 8 -10 15 -30 15 -44 1 -23 2 -23 9 -5
5 11 5 28 0 37 -5 9 -9 19 -9 22 0 3 107 6 238 6 l238 0 37 -38 37 -38 0 -170
0 -170 -48 -47 c-37 -37 -55 -47 -80 -47 -25 0 -55 -17 -126 -70 l-93 -70 -7
-133 c-6 -98 -12 -136 -23 -149 -9 -10 -18 -40 -21 -68 -4 -49 -14 -62 -67
-92 -7 -4 -10 162 -10 490 l0 497 -40 1 c-33 1 -34 1 -7 -3 l33 -4 -2 -497
c-1 -476 0 -497 18 -499 10 -2 33 10 52 26 26 23 34 39 38 75 3 26 13 52 24
62 15 14 19 31 19 88 0 39 3 101 7 138 l6 68 84 61 c52 38 97 63 121 66 25 4
56 23 95 56 l57 50 0 171 0 172 -48 47 -48 47 -251 0 c-139 0 -254 -4 -257 -9z"/>
<path d="M1420 1397 c0 -32 17 -72 47 -113 22 -30 23 -36 26 -355 l2 -324 3
331 c2 305 1 333 -16 355 -19 26 -42 74 -42 89 0 6 41 10 95 10 l95 0 0 -545
c0 -300 -3 -545 -6 -545 -15 0 -43 48 -44 76 0 31 -66 132 -78 120 -3 -3 8
-23 25 -44 18 -22 33 -55 37 -82 8 -49 39 -90 68 -90 17 0 18 25 18 565 l0
565 -69 0 c-37 0 -89 3 -115 6 -44 7 -46 6 -46 -19z"/>
<path d="M1784 1403 c3 -10 8 -35 11 -55 4 -20 16 -44 26 -54 18 -16 19 -36
19 -400 l0 -383 29 -17 c36 -21 41 -37 41 -134 0 -50 6 -82 15 -94 8 -11 15
-35 15 -53 0 -26 4 -33 19 -33 18 0 63 44 86 85 10 16 14 17 48 4 33 -12 39
-11 48 1 5 8 43 70 84 138 l75 123 0 384 0 384 -37 60 -38 60 -223 1 c-208 0
-223 -1 -218 -17z m464 -62 l32 -59 0 -377 0 -377 -76 -125 -76 -124 -42 6
c-40 6 -43 5 -66 -31 -14 -20 -35 -44 -47 -52 -23 -14 -23 -14 -23 26 0 23 -4
44 -10 47 -5 3 -10 37 -10 74 0 100 -8 129 -41 148 l-29 17 0 387 c0 373 -1
386 -20 404 -11 10 -20 27 -20 37 0 11 -5 28 -10 39 -10 18 -5 19 197 19 l208
0 33 -59z"/>
<path d="M2006 1292 c-2 -4 -8 -199 -12 -433 -5 -333 -4 -428 5 -434 18 -10
68 40 98 100 14 28 36 64 49 81 24 30 24 34 24 273 0 188 -3 247 -14 264 -7
12 -16 48 -19 79 -3 32 -8 62 -12 68 -7 12 -111 14 -119 2z m110 -82 c4 -39
13 -75 20 -81 11 -9 14 -60 14 -247 l0 -235 -34 -51 c-18 -28 -43 -69 -54 -92
-11 -22 -28 -46 -36 -53 -15 -12 -16 26 -16 408 l0 421 49 0 50 0 7 -70z"/>
<path d="M2390 1391 c0 -24 10 -37 50 -68 l49 -38 1 -183 c0 -176 -1 -184 -20
-189 -30 -8 -27 -77 5 -125 l25 -37 0 -290 c0 -304 5 -341 43 -341 10 0 32 14
47 30 25 27 31 29 54 19 22 -10 30 -7 74 25 27 20 59 36 69 36 27 0 53 31 53
63 0 26 -2 27 -54 27 -92 0 -86 -16 -86 226 l0 214 28 0 c51 0 67 11 95 63 43
83 41 87 -53 87 l-80 0 0 154 c0 84 3 167 6 183 5 26 9 29 35 25 24 -4 36 3
69 39 28 32 39 53 40 77 l0 32 -225 0 -225 0 0 -29z m430 -5 c0 -7 -13 -27
-29 -43 -15 -17 -33 -38 -39 -49 -9 -16 -14 -16 -37 -6 -51 24 -55 10 -55
-199 l0 -189 39 0 c58 0 131 -12 131 -21 0 -4 -14 -28 -31 -53 -23 -35 -37
-46 -57 -46 -66 -1 -72 -24 -72 -263 l0 -205 75 -7 c75 -7 89 -17 63 -43 -7
-7 -22 -12 -34 -12 -12 0 -41 -16 -64 -35 -47 -39 -52 -40 -81 -22 -18 11 -23
8 -47 -21 -15 -18 -32 -32 -39 -32 -29 0 -33 44 -33 328 0 288 0 290 -25 344
-31 67 -31 78 0 78 l25 0 0 193 0 193 -55 54 c-30 30 -55 58 -55 62 0 4 95 8
210 8 170 0 210 -3 210 -14z"/>
<path d="M2990 1401 c0 -10 -9 -30 -20 -44 -28 -36 -27 -77 3 -77 49 0 48 9
59 -446 8 -370 12 -432 26 -454 43 -64 73 -139 79 -192 5 -48 9 -58 24 -58 18
0 19 11 19 168 0 239 12 544 21 535 4 -4 27 -57 52 -118 136 -333 121 -306
187 -349 36 -22 60 -45 60 -56 0 -9 13 -36 30 -58 23 -32 36 -41 55 -40 14 1
25 5 25 8 0 18 -48 163 -115 345 -42 116 -87 243 -100 284 l-24 74 29 58 c16
31 50 103 75 160 l45 102 -17 46 c-9 25 -23 50 -31 55 -8 5 -32 24 -52 42
l-37 34 -197 0 c-185 0 -196 -1 -196 -19z m423 -36 c22 -19 44 -35 48 -35 4 0
14 -22 23 -49 l16 -50 -53 -113 c-29 -62 -62 -137 -72 -165 -22 -62 -29 -35
90 -358 107 -292 112 -306 120 -345 l7 -35 -25 23 c-13 13 -33 41 -42 63 -12
27 -38 54 -79 83 -54 39 -64 51 -85 107 -61 161 -161 384 -173 384 -10 0 -14
-59 -19 -265 -10 -412 -12 -472 -16 -411 -3 36 -12 66 -29 90 -13 19 -24 42
-24 49 0 7 -11 28 -25 46 l-25 33 -1 364 c-1 200 -4 396 -8 434 -6 68 -7 70
-38 80 -41 12 -42 33 -2 47 28 9 29 12 15 27 -9 10 -16 21 -16 24 0 4 84 7
186 7 l186 0 41 -35z"/>
<path d="M3175 1278 c-2 -7 -6 -83 -7 -168 -3 -132 -1 -155 12 -155 16 0 193
302 187 320 -6 16 -186 19 -192 3z m150 -57 c-13 -28 -52 -94 -85 -147 l-60
-98 0 140 c0 78 3 144 7 147 3 4 42 7 85 7 l78 0 -25 -49z"/>
<path d="M4013 1413 c-62 -2 -113 -6 -113 -10 0 -3 27 -34 60 -70 l60 -64 0
-193 0 -193 -30 -7 c-27 -5 -30 -8 -20 -25 5 -11 10 -27 10 -36 0 -9 9 -29 19
-44 17 -23 20 -53 27 -230 l7 -203 61 -121 c93 -187 96 -184 97 130 1 142 4
289 8 328 l6 70 45 8 c40 7 49 14 78 59 18 28 31 53 29 55 -2 2 -41 6 -86 10
l-81 6 0 198 0 199 28 0 c37 0 69 -35 80 -85 4 -22 12 -39 17 -38 12 2 61 158
71 221 l6 42 -133 -2 c-74 -1 -185 -4 -246 -5z"/>
<path d="M4484 1398 c3 -13 6 -28 6 -34 0 -6 14 -28 30 -49 l30 -38 0 -556 c0
-420 3 -560 12 -569 17 -17 36 -15 66 9 50 38 103 69 118 69 9 0 41 25 73 55
32 30 65 55 73 55 18 0 68 37 68 51 0 18 -107 9 -180 -16 -40 -14 -76 -22 -79
-19 -3 3 -8 243 -11 532 -3 290 -7 528 -8 530 -1 1 -48 2 -103 2 -100 0 -101
0 -95 -22z"/>
<path d="M5020 1400 c0 -17 30 -83 45 -100 11 -12 15 -92 21 -410 l6 -395 39
-47 c26 -31 39 -56 39 -76 0 -17 8 -44 18 -61 41 -73 42 -60 42 534 l0 565
-105 0 c-66 0 -105 -4 -105 -10z"/>
<path d="M5328 1398 c6 -6 12 -19 12 -28 0 -8 10 -31 23 -50 13 -19 29 -62 36
-95 7 -33 26 -90 42 -127 44 -100 40 -159 -21 -373 -52 -181 -59 -233 -35
-275 8 -14 14 -53 15 -91 0 -50 4 -70 18 -82 16 -15 21 -1 87 229 56 197 73
244 87 244 17 0 29 -32 82 -220 13 -45 28 -68 75 -114 42 -41 63 -71 71 -102
7 -23 23 -53 36 -65 l24 -22 0 29 c0 16 -30 144 -66 284 -36 140 -70 275 -75
300 -9 39 -4 73 40 264 36 155 57 226 71 241 11 12 20 31 20 43 0 21 -4 22
-105 22 -58 0 -105 -2 -105 -5 0 -3 5 -13 11 -23 8 -13 4 -53 -21 -167 -40
-190 -37 -182 -55 -164 -12 12 -28 74 -84 324 l-7 30 -94 3 c-76 2 -92 0 -82
-10z"/>
<path d="M620 1268 c-19 -64 -38 -114 -41 -110 -4 4 -12 24 -19 45 -7 21 -19
41 -27 44 -10 4 -49 -28 -114 -93 -54 -54 -99 -102 -99 -106 0 -4 37 -33 82
-65 127 -91 167 -130 174 -172 3 -21 15 -48 26 -62 l20 -24 -7 25 c-4 14 -12
44 -18 68 -10 38 -24 52 -129 133 -65 50 -118 94 -118 98 0 15 169 173 178
167 6 -3 16 -22 22 -41 8 -24 18 -35 30 -35 15 0 25 20 50 101 17 55 30 110
28 122 -2 12 -19 -31 -38 -95z"/>
<path d="M992 1278 c-15 -15 -17 -338 -3 -338 6 0 38 20 73 45 35 25 82 54
106 66 l42 20 0 97 c0 63 -4 102 -12 110 -8 8 -46 12 -103 12 -57 0 -95 -4
-103 -12z m198 -100 l0 -93 -63 -37 c-34 -21 -77 -47 -94 -59 l-33 -21 0 151
0 151 95 0 95 0 0 -92z"/>
<path d="M3696 853 c15 -51 47 -86 73 -81 9 2 25 29 38 66 l22 62 -73 0 -74 0
14 -47z"/>
</g>
</svg>
