<?xml version="1.0" standalone="no"?>
<!DOCTYPE svg PUBLIC "-//W3C//DTD SVG 20010904//EN"
 "http://www.w3.org/TR/2001/REC-SVG-20010904/DTD/svg10.dtd">
<svg version="1.0" xmlns="http://www.w3.org/2000/svg"
 width="587.000000pt" height="145.000000pt" viewBox="0 0 587.000000 145.000000"
 preserveAspectRatio="xMidYMid meet">

<g transform="translate(0.000000,145.000000) scale(0.100000,-0.100000)"
fill="#000000" stroke="none">
<path d="M380 1358 c0 -6 -74 -86 -165 -178 -190 -191 -193 -198 -121 -250 24
-18 46 -41 49 -51 4 -13 14 -19 36 -19 38 0 247 -155 233 -173 -4 -7 -24 -32
-43 -57 -55 -71 -79 -118 -79 -157 0 -25 -10 -49 -31 -77 -90 -121 -199 -288
-199 -305 0 -19 1 -19 50 -3 36 12 56 27 69 49 12 19 31 34 49 38 36 7 54 26
122 130 30 44 96 140 148 214 l95 134 -21 41 c-12 23 -25 55 -29 73 -6 24 -34
52 -123 123 -63 50 -119 96 -124 101 -6 5 12 31 45 66 30 32 74 80 97 106 l44
49 23 -22 c12 -12 25 -35 29 -52 3 -16 11 -28 18 -26 10 4 53 138 73 227 l7
31 -126 0 c-90 0 -126 -3 -126 -12z"/>
<path d="M1670 1331 c4 -21 17 -51 28 -66 21 -27 22 -37 22 -270 0 -133 3
-310 7 -394 l6 -152 29 -17 c27 -16 28 -18 28 -107 0 -67 4 -97 16 -113 11
-16 14 -34 10 -58 -5 -25 -3 -34 7 -34 15 0 59 44 76 77 10 19 20 23 60 23
l49 0 81 134 81 133 0 378 0 377 -46 64 -45 64 -208 0 -208 0 7 -39z m342
-150 c3 -40 12 -78 22 -92 14 -20 16 -57 16 -267 l0 -244 -44 -56 c-24 -32
-52 -73 -61 -92 -10 -19 -27 -45 -38 -58 -47 -51 -47 -52 -47 428 l0 450 74 0
73 0 5 -69z"/>
<path d="M2814 1345 c21 -32 20 -35 -8 -35 -26 0 -51 -24 -41 -40 3 -5 16 -10
28 -10 12 0 27 -4 33 -8 8 -5 13 -134 16 -443 l4 -437 25 -38 c41 -62 70 -135
76 -191 3 -29 10 -53 14 -53 5 0 9 171 9 380 0 297 3 380 13 380 6 0 33 -48
59 -108 85 -194 138 -322 144 -347 4 -15 28 -38 65 -62 36 -24 63 -49 71 -68
17 -43 58 -95 74 -95 8 0 14 2 14 4 0 3 -54 154 -120 337 -66 182 -120 342
-120 356 0 13 23 73 50 134 86 188 89 196 71 251 -12 35 -26 55 -53 73 -21 14
-38 30 -38 35 0 6 -79 10 -201 10 l-201 0 16 -25z m366 -100 c0 -2 -17 -35
-37 -73 -96 -174 -149 -262 -160 -262 -10 0 -13 41 -13 170 l0 170 105 0 c58
0 105 -2 105 -5z"/>
<path d="M3700 1337 c0 -27 9 -39 55 -76 l55 -44 0 -178 c0 -169 -1 -178 -20
-184 -28 -9 -25 -25 5 -25 l25 0 0 199 0 200 -50 42 c-27 23 -50 50 -50 61 0
17 13 18 235 18 129 0 235 -3 235 -7 -1 -22 -49 -192 -60 -213 l-13 -25 -13
30 c-7 17 -13 35 -14 42 0 19 -52 54 -74 51 -18 -3 -22 -12 -27 -68 -4 -36 -7
-122 -8 -192 l-1 -128 39 0 c57 0 131 -12 131 -21 0 -4 -12 -28 -27 -53 -21
-35 -34 -45 -54 -46 -14 0 -34 -6 -44 -14 -17 -12 -12 -13 34 -5 30 4 54 10
56 11 19 28 55 105 55 119 0 17 -9 19 -86 19 l-87 0 5 180 c3 100 8 183 11
186 13 14 53 -30 68 -74 11 -32 22 -48 35 -50 16 -2 25 13 52 96 17 54 32 117
32 140 l0 42 -250 0 -250 0 0 -33z"/>
<path d="M4290 1346 c0 -29 23 -80 49 -110 14 -16 17 -69 21 -445 l5 -426 3
429 2 429 -24 31 c-13 17 -27 46 -30 64 l-8 32 101 0 101 0 0 -526 0 -526 23
7 c57 19 242 63 246 59 12 -11 -21 -53 -47 -58 -16 -4 -52 -31 -82 -61 -39
-40 -62 -55 -82 -55 -15 0 -29 -4 -33 -9 -12 -21 -97 -71 -119 -71 -14 0 -27
9 -34 23 -10 21 -11 20 -11 -10 -1 -32 1 -33 37 -33 26 0 54 12 97 40 33 22
66 40 73 40 7 0 39 24 70 54 32 30 71 58 87 62 38 9 54 31 55 72 0 27 -3 32
-17 28 -40 -12 -222 -56 -231 -56 -6 0 -12 204 -17 515 l-7 515 -68 0 c-37 0
-88 3 -114 6 -45 7 -46 6 -46 -20z"/>
<path d="M4860 1347 c0 -32 17 -72 47 -113 22 -30 23 -36 26 -355 l2 -324 3
331 c2 305 1 333 -16 355 -19 26 -42 74 -42 89 0 6 41 10 95 10 l95 0 0 -545
c0 -300 -3 -545 -6 -545 -15 0 -43 48 -44 76 0 31 -66 132 -78 120 -3 -3 8
-23 25 -44 18 -22 33 -55 37 -82 8 -49 39 -90 68 -90 17 0 18 25 18 565 l0
565 -69 0 c-37 0 -89 3 -115 6 -44 7 -46 6 -46 -19z"/>
<path d="M5217 1356 c-3 -7 -2 -17 3 -22 23 -23 62 -113 81 -187 11 -45 29
-96 39 -113 11 -17 22 -55 26 -85 5 -47 -2 -81 -54 -264 l-61 -209 21 -48 c26
-61 37 -55 14 7 l-18 45 62 211 c66 229 69 261 29 341 -11 21 -30 79 -44 129
-13 50 -31 102 -40 115 -8 13 -15 32 -15 43 0 11 -6 22 -12 25 -7 2 27 4 76 3
l90 -2 12 -55 c7 -30 23 -102 34 -160 20 -98 40 -143 56 -127 4 4 23 77 41
163 26 120 31 160 22 170 -10 12 4 14 88 14 55 0 103 -3 106 -6 4 -4 -9 -29
-29 -55 -33 -45 -38 -64 -75 -252 l-40 -204 55 -219 c48 -191 103 -374 105
-351 1 4 -31 136 -70 293 l-72 285 43 197 c34 156 49 206 71 240 16 23 29 54
29 67 l0 25 -120 0 c-109 0 -120 -2 -120 -18 0 -10 5 -23 11 -29 8 -8 2 -52
-22 -159 -28 -124 -35 -144 -41 -119 -21 80 -68 294 -68 309 0 14 -15 16 -104
16 -79 0 -105 -3 -109 -14z"/>
<path d="M724 1329 c3 -17 6 -42 6 -54 0 -17 7 -24 30 -29 l30 -6 -2 -505 c-2
-332 0 -505 7 -505 29 0 67 48 76 93 5 27 18 61 29 77 15 22 20 44 20 97 0 37
3 97 6 133 l7 66 70 49 c39 28 86 63 104 79 27 23 36 26 48 16 12 -10 25 -3
75 40 l60 52 0 167 0 167 -48 47 -48 47 -238 0 -238 0 6 -31z m426 -204 c0
-79 -4 -115 -11 -115 -7 0 -51 -29 -99 -65 -48 -36 -93 -65 -100 -65 -10 0
-12 28 -7 137 4 75 7 156 7 180 l0 43 105 0 105 0 0 -115z"/>
<path d="M1350 1350 c0 -17 30 -83 45 -100 11 -12 15 -92 21 -410 l6 -395 39
-47 c26 -31 39 -56 39 -76 0 -17 8 -44 18 -61 41 -73 42 -60 42 534 l0 565
-105 0 c-66 0 -105 -4 -105 -10z"/>
<path d="M2260 1347 c0 -7 25 -37 55 -67 l55 -54 0 -193 0 -194 -30 -5 c-25
-5 -28 -9 -20 -25 6 -10 10 -25 10 -34 0 -9 9 -28 20 -42 19 -24 20 -41 20
-332 0 -251 3 -311 14 -327 14 -18 16 -18 48 14 34 32 65 41 84 22 6 -6 25 4
54 30 25 21 54 39 66 40 25 0 59 34 49 49 -3 6 -35 11 -71 11 l-64 0 0 230 c0
176 3 232 13 235 6 2 28 6 47 9 28 5 41 15 65 53 16 27 31 51 33 56 2 4 -11 7
-30 7 -18 0 -57 3 -85 6 l-53 7 0 193 0 194 33 0 c26 0 43 10 82 50 76 77 68
80 -186 80 -164 0 -209 -3 -209 -13z"/>
<path d="M3486 803 c15 -51 47 -86 73 -81 9 2 25 29 38 66 l22 62 -73 0 -74 0
14 -47z"/>
<path d="M3771 787 c-1 -16 8 -42 20 -59 26 -36 37 -30 16 9 -8 15 -20 39 -25
53 l-11 25 0 -28z"/>
<path d="M5415 490 c-37 -132 -71 -243 -76 -246 -12 -7 -39 50 -40 83 0 26 -1
27 -9 6 -15 -36 11 -97 42 -101 24 -3 26 3 82 195 32 109 62 215 68 236 6 21
14 34 18 30 4 -4 24 -66 44 -138 37 -127 39 -132 96 -190 31 -33 63 -76 69
-95 14 -42 48 -80 72 -80 24 0 31 14 20 42 l-10 23 0 -22 c-1 -13 -5 -23 -9
-23 -16 0 -50 45 -61 82 -8 24 -32 56 -65 85 -51 46 -55 53 -100 190 -26 78
-53 146 -60 152 -11 9 -27 -36 -81 -229z"/>
<path d="M3822 494 c-2 -166 1 -204 13 -214 8 -6 24 -37 35 -68 32 -86 78
-152 104 -152 22 0 23 3 29 167 10 248 9 461 -3 443 -6 -9 -10 -134 -10 -302
0 -159 -4 -288 -8 -288 -19 0 -63 60 -83 115 -13 33 -32 74 -43 90 -19 27 -22
49 -26 220 l-6 190 -2 -201z"/>
</g>
</svg>
