<?xml version="1.0" standalone="no"?>
<!DOCTYPE svg PUBLIC "-//W3C//DTD SVG 20010904//EN"
 "http://www.w3.org/TR/2001/REC-SVG-20010904/DTD/svg10.dtd">
<svg version="1.0" xmlns="http://www.w3.org/2000/svg"
 width="145.000000pt" height="140.000000pt" viewBox="0 0 145.000000 140.000000"
 preserveAspectRatio="xMidYMid meet">

<g transform="translate(0.000000,140.000000) scale(0.100000,-0.100000)"
fill="#000000" stroke="none">
<path d="M746 1331 c3 -33 0 -49 -13 -63 -14 -16 -18 -37 -18 -97 0 -68 6 -90
27 -91 14 0 19 80 7 119 -10 33 -10 46 1 66 10 19 11 34 2 67 l-11 43 5 -44z"/>
<path d="M480 1343 c0 -5 9 -18 20 -28 11 -10 20 -26 20 -36 0 -10 7 -25 16
-33 8 -9 19 -38 23 -66 4 -28 15 -58 25 -68 9 -10 16 -24 16 -30 0 -17 30 -15
36 3 7 17 -47 125 -82 168 -13 16 -24 34 -24 41 0 7 -11 23 -25 36 -14 13 -25
19 -25 13z"/>
<path d="M937 1323 c-2 -4 -10 -26 -17 -48 -7 -22 -21 -52 -31 -67 -11 -14
-19 -39 -19 -55 0 -16 -6 -38 -14 -49 -15 -20 -5 -44 19 -44 15 0 24 25 35 95
5 28 15 77 24 110 14 54 15 79 3 58z"/>
<path d="M1155 1198 c-16 -12 -47 -37 -68 -55 -20 -18 -43 -33 -50 -33 -16 -1
-97 -75 -97 -89 0 -31 63 6 135 79 131 132 137 139 80 98z"/>
<path d="M354 1197 c11 -7 25 -19 33 -27 86 -97 120 -130 135 -130 28 0 22 15
-24 54 -24 20 -56 49 -73 65 -30 29 -67 52 -82 50 -4 0 1 -6 11 -12z"/>
<path d="M175 1127 c11 -7 43 -36 71 -64 28 -29 56 -53 62 -53 6 0 23 -11 38
-25 27 -25 64 -34 64 -15 0 16 -52 70 -67 70 -7 0 -32 17 -56 38 -23 22 -57
44 -76 50 -43 15 -62 14 -36 -1z"/>
<path d="M603 1015 c-64 -19 -124 -58 -185 -119 -63 -62 -95 -130 -105 -228
-6 -57 -8 -62 -52 -94 -25 -18 -79 -46 -118 -61 -62 -24 -73 -32 -73 -52 0
-21 3 -23 35 -18 42 7 38 -9 -5 -18 -17 -4 -30 -11 -30 -16 0 -12 11 -11 40 6
14 8 28 14 31 15 9 0 45 -78 53 -116 7 -30 4 -34 -58 -80 -37 -26 -66 -54 -66
-61 0 -16 99 -113 116 -113 7 0 15 8 19 18 3 9 26 32 51 50 38 28 51 33 80 28
41 -8 43 -21 6 -40 -15 -8 -35 -23 -44 -33 -17 -19 -16 -19 41 -19 53 0 58 2
50 18 -6 10 -5 19 1 23 5 3 15 -5 22 -19 10 -24 16 -26 80 -26 l68 0 -32 65
c-42 85 -31 99 41 50 81 -54 101 -50 189 40 44 45 70 79 66 86 -4 7 -3 9 3 6
6 -4 25 9 42 28 33 38 90 142 72 130 -12 -7 -15 33 -5 59 9 23 45 21 39 -1 -3
-10 7 7 22 37 24 47 27 67 27 140 0 141 -55 234 -176 295 -60 30 -80 35 -137
34 -36 0 -85 -6 -108 -14z m117 -5 c-32 -21 -151 -53 -162 -42 -11 11 63 38
122 45 19 2 40 4 45 5 6 1 3 -3 -5 -8z m85 -35 c19 -20 35 -39 35 -44 0 -22
-85 -57 -96 -40 -3 5 -14 7 -24 4 -17 -5 -109 42 -110 57 0 4 12 11 28 14 15
4 45 15 67 25 54 25 59 24 100 -16z m73 -17 c48 -35 97 -96 87 -106 -9 -10
-79 35 -103 66 -15 20 -39 49 -54 64 -26 28 -26 29 -5 22 12 -3 46 -24 75 -46z
m-315 -4 c15 -15 -84 -172 -164 -260 -27 -30 -49 -59 -49 -64 0 -5 -14 -25
-31 -45 -17 -19 -27 -35 -22 -35 14 0 48 40 67 78 9 18 21 30 26 27 15 -9 12
-46 -5 -59 -9 -7 -17 -36 -21 -76 -8 -97 -36 -142 -50 -82 -4 15 -15 41 -25
58 -14 23 -16 33 -7 42 7 7 8 12 3 12 -5 0 2 11 14 24 14 15 28 51 38 97 8 41
28 101 44 135 46 97 149 181 182 148z m117 -64 c24 -18 25 -20 8 -47 -9 -15
-37 -46 -62 -67 -38 -32 -57 -41 -104 -47 -31 -4 -65 -10 -75 -14 -12 -5 -1
17 31 61 28 38 62 93 77 122 l27 52 37 -20 c20 -12 47 -30 61 -40z m181 -2
c16 -30 39 -129 33 -140 -13 -20 -43 -4 -82 46 -53 69 -60 86 -35 86 11 0 28
7 39 15 26 20 31 19 45 -7z m109 -98 c0 -91 -46 -93 -66 -4 -6 27 -14 58 -18
70 l-6 21 45 -21 c44 -20 45 -22 45 -66z m-303 -23 c-8 -26 -18 -37 -32 -38
-20 -2 -20 -2 0 -6 18 -3 20 -12 21 -78 l1 -74 -54 -16 c-30 -9 -57 -14 -60
-11 -3 3 0 19 6 37 6 18 11 39 10 48 0 9 -7 -6 -15 -34 -19 -62 -26 -69 -91
-93 l-53 -20 0 28 c0 16 -3 37 -6 47 -5 15 -4 16 6 3 8 -12 10 1 8 55 -3 69
-3 70 27 84 16 8 51 16 77 19 l47 4 4 -38 4 -39 1 43 c1 23 6 42 12 42 11 0
53 34 79 62 20 23 22 19 8 -25z m331 7 c4 2 8 -22 10 -54 2 -63 -10 -84 -28
-49 -8 13 -9 39 -4 72 4 29 9 46 11 39 3 -6 8 -10 11 -8z m-162 -126 c18 -35
19 -34 -17 -47 -44 -15 -47 -15 -74 15 -21 22 -24 33 -19 68 10 72 11 73 55
30 22 -21 47 -51 55 -66z m64 30 l-1 -53 -19 50 c-24 60 -24 55 0 55 18 0 20
-7 20 -52z m39 33 c9 -6 11 -18 7 -35 -4 -15 -11 -24 -15 -21 -5 3 -12 -1 -14
-7 -3 -7 -6 6 -6 30 -1 43 4 48 28 33z m41 -72 c0 -8 -13 -25 -30 -37 -16 -13
-30 -18 -30 -12 0 6 -5 8 -12 4 -7 -4 -8 -3 -4 5 4 6 11 9 16 6 4 -3 15 14 25
37 12 32 19 39 26 27 5 -7 9 -21 9 -30z m21 -30 c-5 -13 -10 -19 -10 -12 -1
15 10 45 15 40 3 -2 0 -15 -5 -28z m-21 -14 c0 -8 -7 -15 -16 -15 -14 0 -14 3
-4 15 7 8 14 15 16 15 2 0 4 -7 4 -15z m-288 -52 c24 -28 40 -84 28 -98 -6 -7
-37 -33 -69 -58 l-59 -47 -7 38 c-3 20 -17 60 -30 89 l-23 52 56 16 c31 9 62
18 67 20 18 6 22 5 37 -12z m200 11 c6 -5 -32 -128 -49 -158 -7 -13 -16 -10
-51 18 l-42 34 62 56 c61 56 70 61 80 50z m-672 -54 c-25 -22 -49 -40 -54 -40
-13 0 -2 11 49 49 56 42 58 37 5 -9z m565 -6 l-40 -35 -12 28 c-11 28 -11 28
30 34 23 3 47 6 52 7 6 1 -8 -15 -30 -34z m-497 -16 c6 -14 15 -40 18 -57 6
-29 2 -36 -42 -77 -48 -43 -49 -44 -57 -22 -5 13 -17 42 -28 66 -10 23 -19 44
-19 46 0 9 95 76 104 73 6 -2 17 -15 24 -29z m261 -21 c10 -30 22 -69 26 -88
6 -32 3 -37 -38 -66 l-44 -32 -48 86 c-37 66 -46 89 -38 102 9 15 84 49 110
50 6 1 21 -23 32 -52z m333 -54 c-22 -18 -23 -13 -9 32 l12 40 6 -30 c4 -20 1
-34 -9 -42z m-87 -7 l40 -35 -29 -56 c-16 -31 -35 -59 -43 -62 -7 -3 -30 8
-50 25 -21 16 -53 37 -70 46 -18 9 -33 18 -33 20 0 10 117 96 130 96 8 0 33
-16 55 -34z m-435 -13 c0 -26 -1 -26 -17 -10 -16 16 -16 19 -3 27 20 13 20 13
20 -17z m521 -11 c-14 -26 -51 -57 -51 -43 0 12 44 61 55 61 3 0 1 -8 -4 -18z
m-539 -19 c8 -10 20 -42 25 -70 10 -53 10 -53 -24 -78 l-33 -26 -49 50 -48 49
46 46 c50 51 61 54 83 29z m293 -47 c43 -18 105 -67 105 -82 0 -7 -16 -26 -36
-43 -37 -33 -49 -34 -105 -5 -32 16 -89 69 -89 82 0 13 61 62 78 62 7 0 28 -6
47 -14z m-381 -86 c20 -22 36 -43 36 -48 0 -4 -21 -20 -46 -37 -25 -16 -49
-37 -54 -46 -8 -14 -17 -9 -60 34 -27 27 -50 51 -50 53 0 6 116 84 126 84 7 0
28 -18 48 -40z m156 -29 c27 -16 29 -20 15 -31 -13 -11 -23 -11 -56 0 l-41 14
22 18 c27 22 23 22 60 -1z m-60 -111 c-8 -5 -19 -10 -25 -10 -5 0 -3 5 5 10 8
5 20 10 25 10 6 0 3 -5 -5 -10z"/>
<path d="M1221 1010 c-15 -13 -38 -20 -68 -20 -54 0 -143 -30 -143 -47 0 -15
51 -18 66 -3 5 5 34 14 64 20 33 6 64 20 80 34 14 14 41 26 60 29 l35 4 -35 1
c-22 1 -44 -6 -59 -18z"/>
<path d="M125 1004 c11 -8 30 -17 43 -21 12 -3 22 -9 22 -14 0 -14 93 -69 118
-69 12 0 22 3 22 8 -1 10 -75 62 -90 62 -7 0 -24 6 -38 14 -15 8 -43 19 -62
25 -32 10 -34 10 -15 -5z"/>
<path d="M1324 920 c-11 -4 -59 -10 -108 -14 -103 -8 -161 -25 -161 -46 0 -21
83 -15 150 10 73 27 151 43 175 35 11 -3 20 -2 20 3 0 12 -52 20 -76 12z"/>
<path d="M1070 756 c0 -20 24 -25 152 -28 116 -3 128 8 27 24 -133 20 -179 21
-179 4z"/>
<path d="M1070 615 c0 -10 14 -17 40 -21 22 -4 43 -11 46 -15 3 -5 31 -9 63
-9 32 0 75 -7 96 -16 51 -21 55 -11 8 20 -25 17 -51 26 -78 26 -23 0 -50 7
-61 15 -26 20 -114 20 -114 0z"/>
<path d="M1060 527 c0 -16 77 -47 115 -47 12 0 30 -7 41 -15 10 -8 28 -14 39
-15 18 0 17 2 -5 14 -109 61 -190 88 -190 63z"/>
<path d="M1005 420 c-3 -5 -4 -14 -1 -19 9 -15 73 -41 99 -41 15 0 33 -10 44
-25 11 -15 31 -27 53 -30 l35 -5 -33 12 c-19 6 -39 23 -48 39 -9 19 -27 32
-54 40 -22 7 -45 18 -51 26 -13 15 -35 17 -44 3z"/>
<path d="M937 316 c-5 -13 50 -76 67 -76 4 0 31 -20 58 -45 28 -25 54 -43 57
-39 3 3 -8 18 -25 32 -17 15 -39 42 -48 60 -9 17 -23 32 -31 32 -8 0 -22 11
-31 25 -18 28 -39 33 -47 11z"/>
</g>
</svg>
